<?xml version="1.0" encoding="utf-8"?>
<!-- Generator: Adobe Illustrator 26.0.0, SVG Export Plug-In . SVG Version: 6.00 Build 0)  -->
<svg version="1.1" id="Layer_1" xmlns="http://www.w3.org/2000/svg" xmlns:xlink="http://www.w3.org/1999/xlink" x="0px" y="0px"
	 viewBox="0 0 24 24" style="enable-background:new 0 0 24 24;" xml:space="preserve">
<style type="text/css">
	.st0{fill:none;stroke:#141613;stroke-width:0.4321;stroke-miterlimit:10;}
	.st1{fill:#141613;}
</style>
<g>
	<path id="XMLID_3_" class="st0" d="M12,23.6L12,23.6C5.59,23.6,0.4,18.41,0.4,12l0,0C0.4,5.59,5.59,0.4,12,0.4l0,0
		c6.41,0,11.6,5.19,11.6,11.6l0,0C23.6,18.41,18.41,23.6,12,23.6z"/>
	<g id="XMLID_821_">
		<path id="XMLID_823_" class="st1" d="M12,5.1c-3.81,0-6.9,3.09-6.9,6.9c0,3.81,3.09,6.9,6.9,6.9c3.81,0,6.9-3.09,6.9-6.9
			C18.9,8.19,15.81,5.1,12,5.1z M12,6.3c1.31,0,2.51,0.45,3.48,1.19c-0.69,0.89-1.65,1.6-2.87,2.12c-0.58-1.07-1.25-2.11-2.01-3.13
			C11.05,6.36,11.52,6.3,12,6.3z M9.43,6.92c0.77,1,1.44,2.04,2.03,3.1c-1.4,0.41-3.07,0.62-5,0.64C6.86,9.02,7.96,7.66,9.43,6.92z
			 M6.3,12c0-0.05,0.01-0.1,0.01-0.15c2.21,0,4.12-0.26,5.72-0.76c0.13,0.27,0.26,0.55,0.39,0.82c-1.94,0.61-3.55,1.85-4.8,3.73
			C6.79,14.66,6.3,13.38,6.3,12z M12,17.7c-1.32,0-2.53-0.45-3.5-1.21c1.13-1.78,2.58-2.93,4.37-3.47c0.53,1.39,0.93,2.82,1.18,4.29
			C13.41,17.56,12.72,17.7,12,17.7z M15.17,16.74c-0.25-1.35-0.62-2.68-1.1-3.97c1.08-0.15,2.27-0.11,3.57,0.11
			C17.38,14.49,16.46,15.87,15.17,16.74z M13.6,11.64c-0.14-0.32-0.29-0.65-0.44-0.97c1.33-0.58,2.4-1.36,3.19-2.35
			c0.78,0.92,1.26,2.08,1.34,3.36C16.21,11.44,14.84,11.42,13.6,11.64z"/>
	</g>
</g>
</svg>
