<?xml version="1.0" encoding="utf-8"?>
<!-- Generator: Adobe Illustrator 26.0.0, SVG Export Plug-In . SVG Version: 6.00 Build 0)  -->
<svg version="1.1" id="Layer_1" xmlns="http://www.w3.org/2000/svg" xmlns:xlink="http://www.w3.org/1999/xlink" x="0px" y="0px"
	 viewBox="0 0 24 24" style="enable-background:new 0 0 24 24;" xml:space="preserve">
<style type="text/css">
	.st0{fill:none;stroke:#141613;stroke-width:0.4321;stroke-miterlimit:10;}
	.st1{fill:#141613;}
</style>
<g>
	<g>
		<path id="XMLID_696_" class="st0" d="M12,23.62L12,23.62c-6.42,0-11.62-5.2-11.62-11.62l0,0C0.38,5.58,5.58,0.38,12,0.38l0,0
			c6.42,0,11.62,5.2,11.62,11.62l0,0C23.62,18.42,18.42,23.62,12,23.62z"/>
	</g>
	<g id="XMLID_649_">
		<path id="XMLID_656_" class="st1" d="M12,7.37c1.51,0,1.69,0.01,2.28,0.03c0.55,0.03,0.85,0.12,1.05,0.19
			c0.26,0.1,0.45,0.22,0.65,0.42c0.2,0.2,0.32,0.39,0.42,0.65c0.08,0.2,0.17,0.5,0.19,1.05c0.03,0.6,0.03,0.77,0.03,2.28
			c0,1.51-0.01,1.69-0.03,2.28c-0.03,0.55-0.12,0.85-0.19,1.05c-0.1,0.26-0.22,0.45-0.42,0.65c-0.2,0.2-0.39,0.32-0.65,0.42
			c-0.2,0.08-0.5,0.17-1.05,0.19c-0.6,0.03-0.77,0.03-2.28,0.03c-1.51,0-1.69-0.01-2.28-0.03c-0.55-0.03-0.85-0.12-1.05-0.19
			c-0.26-0.1-0.45-0.22-0.65-0.42c-0.2-0.2-0.32-0.39-0.42-0.65c-0.08-0.2-0.17-0.5-0.19-1.05c-0.03-0.6-0.03-0.77-0.03-2.28
			c0-1.51,0.01-1.69,0.03-2.28C7.43,9.17,7.52,8.87,7.6,8.67c0.1-0.26,0.22-0.45,0.42-0.65c0.2-0.2,0.39-0.32,0.65-0.42
			c0.2-0.08,0.5-0.17,1.05-0.19C10.31,7.38,10.49,7.37,12,7.37 M12,6.35c-1.53,0-1.73,0.01-2.33,0.03C9.07,6.41,8.66,6.51,8.3,6.65
			c-0.37,0.14-0.69,0.34-1,0.65c-0.31,0.31-0.51,0.63-0.65,1C6.51,8.66,6.41,9.07,6.39,9.67c-0.03,0.6-0.03,0.79-0.03,2.33
			s0.01,1.73,0.03,2.33c0.03,0.6,0.12,1.01,0.26,1.37c0.14,0.37,0.34,0.69,0.65,1c0.31,0.31,0.63,0.51,1,0.65
			c0.36,0.14,0.77,0.24,1.37,0.26c0.6,0.03,0.79,0.03,2.33,0.03c1.53,0,1.73-0.01,2.33-0.03c0.6-0.03,1.01-0.12,1.37-0.26
			c0.37-0.14,0.69-0.34,1-0.65c0.31-0.31,0.51-0.63,0.65-1c0.14-0.36,0.24-0.77,0.26-1.37c0.03-0.6,0.03-0.79,0.03-2.33
			s-0.01-1.73-0.03-2.33c-0.03-0.6-0.12-1.01-0.26-1.37c-0.14-0.37-0.34-0.69-0.65-1c-0.31-0.31-0.63-0.51-1-0.65
			c-0.36-0.14-0.77-0.24-1.37-0.26C13.73,6.36,13.53,6.35,12,6.35"/>
		<path id="XMLID_653_" class="st1" d="M12,9.1c-1.6,0-2.9,1.3-2.9,2.9s1.3,2.9,2.9,2.9c1.6,0,2.9-1.3,2.9-2.9S13.6,9.1,12,9.1
			 M12,13.88c-1.04,0-1.88-0.84-1.88-1.88c0-1.04,0.84-1.88,1.88-1.88c1.04,0,1.88,0.84,1.88,1.88C13.88,13.04,13.04,13.88,12,13.88
			"/>
		<path id="XMLID_652_" class="st1" d="M15.69,8.99c0,0.37-0.3,0.68-0.68,0.68c-0.37,0-0.68-0.3-0.68-0.68s0.3-0.68,0.68-0.68
			C15.39,8.31,15.69,8.61,15.69,8.99"/>
	</g>
</g>
</svg>
