<?xml version="1.0" encoding="utf-8"?>
<!-- Generator: Adobe Illustrator 26.0.0, SVG Export Plug-In . SVG Version: 6.00 Build 0)  -->
<svg version="1.1" id="Layer_1" xmlns="http://www.w3.org/2000/svg" xmlns:xlink="http://www.w3.org/1999/xlink" x="0px" y="0px"
	 viewBox="0 0 24 24" style="enable-background:new 0 0 24 24;" xml:space="preserve">
<style type="text/css">
	.st0{fill:none;stroke:#141613;stroke-width:0.4321;stroke-miterlimit:10;}
	.st1{fill-rule:evenodd;clip-rule:evenodd;fill:#141613;}
</style>
<g>
	<path id="XMLID_4_" class="st0" d="M12,23.64L12,23.64C5.57,23.64,0.36,18.43,0.36,12l0,0C0.36,5.57,5.57,0.36,12,0.36l0,0
		c6.43,0,11.64,5.21,11.64,11.64l0,0C23.64,18.43,18.43,23.64,12,23.64z"/>
	<g id="XMLID_810_">
		<path id="XMLID_811_" class="st1" d="M16.99,14.15c-0.28-0.14-1.62-0.79-1.87-0.88c-0.25-0.09-0.43-0.14-0.62,0.14
			c-0.18,0.27-0.71,0.88-0.87,1.06c-0.16,0.18-0.32,0.2-0.59,0.07c-0.27-0.14-1.15-0.42-2.2-1.35c-0.81-0.72-1.36-1.6-1.52-1.87
			c-0.16-0.27-0.02-0.42,0.12-0.55c0.13-0.13,0.27-0.32,0.41-0.47c0.04-0.05,0.07-0.09,0.1-0.13c0.06-0.1,0.11-0.19,0.17-0.32
			c0.09-0.18,0.05-0.34-0.02-0.47C10.05,9.22,9.5,7.88,9.27,7.34C9.04,6.8,8.81,6.89,8.65,6.89c-0.16,0-0.34-0.03-0.52-0.03
			c-0.18,0-0.48,0.07-0.73,0.34C7.15,7.47,6.44,8.13,6.44,9.47c0,0.31,0.06,0.63,0.14,0.92c0.28,0.96,0.87,1.74,0.98,1.88
			c0.14,0.18,1.89,3.01,4.67,4.1c2.78,1.08,2.78,0.72,3.28,0.67c0.5-0.04,1.62-0.65,1.84-1.29c0.23-0.63,0.23-1.17,0.16-1.29
			C17.45,14.35,17.27,14.29,16.99,14.15z"/>
	</g>
</g>
</svg>
