<?xml version="1.0" encoding="utf-8"?>
<!-- Generator: Adobe Illustrator 26.0.0, SVG Export Plug-In . SVG Version: 6.00 Build 0)  -->
<svg version="1.1" id="Layer_1" xmlns="http://www.w3.org/2000/svg" xmlns:xlink="http://www.w3.org/1999/xlink" x="0px" y="0px"
	 viewBox="0 0 24 24" style="enable-background:new 0 0 24 24;" xml:space="preserve">
<style type="text/css">
	.st0{fill:none;stroke:#141613;stroke-width:0.4321;stroke-miterlimit:10;}
	.st1{fill:#141613;}
</style>
<g>
	<path id="XMLID_699_" class="st0" d="M12,23.63L12,23.63C5.58,23.63,0.37,18.42,0.37,12l0,0C0.37,5.58,5.58,0.37,12,0.37l0,0
		c6.42,0,11.63,5.21,11.63,11.63l0,0C23.63,18.42,18.42,23.63,12,23.63z"/>
	<path id="XMLID_659_" class="st1" d="M10.43,18.23h2.51v-6.28h1.75l0.19-2.1h-1.94c0,0,0-0.79,0-1.2c0-0.5,0.1-0.69,0.58-0.69
		c0.39,0,1.36,0,1.36,0V5.77c0,0-1.43,0-1.74,0c-1.87,0-2.71,0.82-2.71,2.4c0,1.37,0,1.68,0,1.68H9.12v2.13h1.31V18.23z"/>
</g>
</svg>
